<svg width="20" height="20" viewBox="0 0 20 20" fill="none" xmlns="http://www.w3.org/2000/svg">
<g clip-path="url(#clip0_329_387)">
<path d="M14.95 14.9502C13.5255 16.036 11.7909 16.6375 10 16.6668C4.16668 16.6668 0.833344 10.0002 0.833344 10.0002C1.86992 8.06841 3.30762 6.38067 5.05001 5.05016M8.25001 3.5335C8.82362 3.39923 9.4109 3.33211 10 3.3335C15.8333 3.3335 19.1667 10.0002 19.1667 10.0002C18.6608 10.9465 18.0576 11.8374 17.3667 12.6585M11.7667 11.7668C11.5378 12.0125 11.2618 12.2095 10.9551 12.3461C10.6485 12.4827 10.3174 12.5562 9.98175 12.5621C9.64608 12.5681 9.31264 12.5063 9.00135 12.3806C8.69006 12.2548 8.40728 12.0677 8.16988 11.8303C7.93249 11.5929 7.74534 11.3101 7.6196 10.9988C7.49386 10.6875 7.43211 10.3541 7.43804 10.0184C7.44396 9.68274 7.51743 9.3517 7.65407 9.04503C7.79071 8.73837 7.98772 8.46237 8.23334 8.2335M0.833344 0.833496L19.1667 19.1668" stroke="#DBFC08" stroke-width="2" stroke-linecap="round" stroke-linejoin="round"/>
</g>
<defs>
<clipPath id="clip0_329_387">
<rect width="20" height="20" fill="white"/>
</clipPath>
</defs>
</svg>
