<svg width="30" height="30" viewBox="0 0 30 30" fill="none" xmlns="http://www.w3.org/2000/svg">
    <path d="m26.225,18.925c-2.4368,3.6288 -8.5386,5.9311 -11.225,5.975c-8.75,0 -13.75,-10 -13.75,-10c1.55486,-2.8976 3.71142,-4.42924 7.325,-7.425m-0.4,0.325c0.8604,-0.2014 1.0413,-2.00208 6.825,-2.9c5.7837,-0.89792 13.75,10 13.75,10c-0.7588,1.4195 -1.5637,2.8559 -2.6,4.0875m-8.5,-1.4375c-0.3433,0.3684 -0.7573,0.6639 -1.2173,0.8689c-0.46,0.205 -0.9566,0.3152 -1.4601,0.3241c-0.5035,0.0088 -1.0036,-0.0838 -1.4706,-0.2724c-0.4669,-0.1886 -0.8911,-0.4693 -1.2472,-0.8254c-0.3561,-0.3561 -0.6368,-0.7803 -0.8254,-1.2472c-0.1886,-0.467 -0.2812,-0.9671 -0.2724,-1.4706c0.0089,-0.5035 0.1191,-1.0001 0.3241,-1.4601c0.205,-0.46 6.9005,-3.674 6.3689,3.7327" fill="black" id="svg_1" stroke="#DBFC08" strokeLinecap="round" strokeLinejoin="round" strokeWidth="2"/>
</svg>