<svg width="30" height="30" viewBox="0 0 30 30" fill="none" xmlns="http://www.w3.org/2000/svg">
<path d="M15 30C23.2843 30 30 23.2843 30 15C30 6.71573 23.2843 0 15 0C6.71573 0 0 6.71573 0 15C0 23.2843 6.71573 30 15 30Z" fill="url(#paint0_linear_442_98)"/>
<path fill-rule="evenodd" clip-rule="evenodd" d="M6.7899 14.8414C11.1627 12.9363 14.0786 11.6803 15.5376 11.0734C19.7032 9.34081 20.5688 9.03983 21.133 9.02989C21.2571 9.02771 21.5345 9.05846 21.7142 9.20429C21.866 9.32742 21.9077 9.49376 21.9277 9.6105C21.9477 9.72725 21.9726 9.9932 21.9528 10.201C21.7271 12.5729 20.7503 18.3287 20.2534 20.9852C20.0431 22.1093 19.6291 22.4862 19.2283 22.5231C18.3572 22.6033 17.6957 21.9474 16.852 21.3944C15.5319 20.529 14.786 19.9903 13.5045 19.1458C12.0236 18.1698 12.9836 17.6335 13.8276 16.7568C14.0485 16.5274 17.8865 13.0365 17.9608 12.7198C17.9701 12.6802 17.9787 12.5326 17.891 12.4546C17.8033 12.3766 17.6738 12.4033 17.5804 12.4245C17.448 12.4546 15.339 13.8485 11.2533 16.6065C10.6547 17.0175 10.1125 17.2178 9.62664 17.2073C9.09106 17.1958 8.06083 16.9045 7.29495 16.6556C6.35558 16.3502 5.60898 16.1888 5.67399 15.6702C5.70785 15.4001 6.07982 15.1238 6.7899 14.8414Z" fill="white"/>
<defs>
<linearGradient id="paint0_linear_442_98" x1="1500" y1="0" x2="1500" y2="2977.75" gradientUnits="userSpaceOnUse">
<stop stop-color="#2AABEE"/>
<stop offset="1" stop-color="#229ED9"/>
</linearGradient>
</defs>
</svg>
