<svg width="21" height="21" viewBox="0 0 21 21" fill="none" xmlns="http://www.w3.org/2000/svg">
<path fill-rule="evenodd" clip-rule="evenodd" d="M2.16668 10.4998C2.16668 15.1022 5.89764 18.8332 10.5 18.8332C15.1024 18.8332 18.8333 15.1022 18.8333 10.4998C18.8333 5.89747 15.1024 2.1665 10.5 2.1665C5.89764 2.1665 2.16668 5.89747 2.16668 10.4998ZM10.5 20.9165C4.74704 20.9165 0.0833435 16.2528 0.0833435 10.4998C0.0833435 4.74687 4.74704 0.0831714 10.5 0.0831714C16.253 0.0831714 20.9167 4.74687 20.9167 10.4998C20.9167 16.2528 16.253 20.9165 10.5 20.9165ZM6.63844 8.7216C7.04524 8.3148 7.70478 8.3148 8.11158 8.7216L10.5 11.11L12.8884 8.7216C13.2952 8.3148 13.9548 8.3148 14.3616 8.7216C14.7684 9.1284 14.7684 9.78794 14.3616 10.1947L11.2366 13.3197C10.8298 13.7265 10.1702 13.7265 9.76344 13.3197L6.63844 10.1947C6.23164 9.78794 6.23164 9.1284 6.63844 8.7216Z" fill="#DBFC08"/>
</svg>
