<svg width="35" height="35" viewBox="0 0 35 35" fill="none" xmlns="http://www.w3.org/2000/svg">
<path d="M0 17.5C0 7.83475 7.833 0 17.5 0C27.1635 0 35 7.83475 35 17.5C35 27.1652 27.1635 35 17.5 35C7.833 35 0 27.1652 0 17.5Z" fill="#FC3F1D"/>
<path d="M19.74 9.91548H18.123C15.1585 9.91548 13.5992 11.417 13.5992 13.6307C13.5992 16.1332 14.6772 17.3057 16.891 18.809L18.7197 20.041L13.4645 27.8932H9.53748L14.2537 20.8687C11.5412 18.9245 10.0187 17.0362 10.0187 13.8425C10.0187 9.83848 12.81 7.10498 18.1037 7.10498H23.359V27.874H19.74V9.91548Z" fill="white"/>
</svg>
